<?xml version="1.0" encoding="utf-8"?>
<!-- Generator: Adobe Illustrator 21.1.0, SVG Export Plug-In . SVG Version: 6.00 Build 0)  -->
<svg version="1.1" id="Layer_1" xmlns="http://www.w3.org/2000/svg" xmlns:xlink="http://www.w3.org/1999/xlink" x="0px" y="0px"
	 width="143px" height="49.9px" viewBox="0 0 143 49.9" style="enable-background:new 0 0 143 49.9;" xml:space="preserve">
<style type="text/css">
	.st0{fill:#203646;}
	.st1{fill:#344856;}
	.st2{fill:#19CED6;}
</style>
<g id="Text">
	<path class="st0" d="M14.5,10.1v12.2h-2.9v-7.6l-2.6,7.6H6.4l-2.6-7.6v7.6H0.8V10.1h3.5l3.3,8.4l3.2-8.4H14.5z M22.3,12.4v2.5h4.1
		v2.3h-4.1v2.7h4.6v2.4h-7.6V10h7.6v2.4H22.3z M42.4,16.1c0,1.3-0.3,2.3-0.8,3.2c-0.5,0.9-1.3,1.7-2.2,2.2c-1,0.5-2.2,0.8-3.4,0.8
		h-4.6V10H36c1.3,0,2.5,0.3,3.4,0.8c0.9,0.5,1.7,1.2,2.2,2.2C42.1,13.9,42.4,14.9,42.4,16.1z M35.7,19.6c1.2,0,2.1-0.3,2.7-0.9
		c0.6-0.7,0.9-1.5,0.9-2.6c0-1.1-0.3-2-0.9-2.5c-0.7-0.6-1.6-0.9-2.7-0.9h-1.4v7H35.7z M49.7,10v12.3h-2.9V10H49.7z M60.1,9.9
		c1.6,0,2.8,0.4,3.9,1.3c1,0.8,1.7,1.9,2,3.2h-3.1c-0.2-0.5-0.6-1-1.1-1.3c-0.5-0.3-1-0.5-1.7-0.5c-0.9,0-1.6,0.3-2.1,1
		c-0.6,0.6-0.9,1.5-0.9,2.5c0,1,0.3,1.9,0.9,2.5c0.5,0.7,1.2,1,2.1,1c0.7,0,1.2-0.2,1.7-0.5c0.5-0.3,0.9-0.8,1.1-1.3H66
		c-0.3,1.4-1,2.5-2,3.2c-1.1,0.9-2.4,1.3-3.9,1.3c-1.2,0-2.2-0.3-3-0.8c-1-0.5-1.7-1.3-2.2-2.3c-0.5-0.9-0.7-2-0.7-3.1
		c0-1.3,0.2-2.4,0.7-3.2c0.5-1,1.2-1.8,2.2-2.3C58,10.2,58.9,9.9,60.1,9.9z M76.2,9.8c1.2,0,2.3,0.3,3.2,0.8
		c0.9,0.6,1.7,1.4,2.2,2.3c0.6,1,0.8,2.1,0.8,3.2s-0.2,2.3-0.8,3.2c-0.6,1-1.3,1.8-2.3,2.3c-0.9,0.5-2,0.8-3.1,0.8
		c-1.1,0-2.2-0.3-3-0.8c-1-0.5-1.8-1.3-2.3-2.3c-0.6-1-0.8-2.1-0.8-3.2s0.2-2.3,0.8-3.2c0.5-0.9,1.3-1.7,2.3-2.3
		C74,10.1,75.1,9.8,76.2,9.8z M76.2,12.6c-0.9,0-1.7,0.4-2.3,1c-0.6,0.6-0.9,1.5-0.9,2.5s0.3,2,0.9,2.5c0.6,0.7,1.4,1,2.3,1
		c1,0,1.8-0.3,2.4-1c0.6-0.6,0.9-1.5,0.9-2.5s-0.3-1.9-0.9-2.5C78,13,77.2,12.6,76.2,12.6z"/>
	<path class="st1" d="M3.5,34.9c0.8,0,1.5,0.2,2,0.6s0.9,1,1,1.7H4.9c-0.1-0.3-0.3-0.5-0.5-0.7c-0.3-0.1-0.6-0.2-0.9-0.2
		c-0.4,0-0.8,0.2-1.1,0.5c-0.2,0.3-0.4,0.7-0.4,1.3c0,0.5,0.2,0.9,0.4,1.3c0.3,0.3,0.7,0.4,1.1,0.4c0.3,0,0.6,0,0.9-0.2
		c0.2-0.2,0.4-0.4,0.5-0.7h1.6c-0.1,0.7-0.5,1.3-1,1.7s-1.2,0.6-2,0.6C3,41.1,2.5,41,2,40.7c-0.4-0.2-0.8-0.6-1-1.1
		c-0.3-0.5-0.4-1-0.4-1.6s0.1-1.2,0.4-1.7c0.2-0.5,0.6-0.8,1-1.1C2.5,35,3,34.9,3.5,34.9z M12.5,40h-2.3l-0.4,1.1H8.2l2.3-6.1h1.8
		l2.2,6.1h-1.6L12.5,40z M12.2,38.9l-0.8-2.3l-0.8,2.3H12.2z M19.5,41.1l-1.3-2.4h-0.4v2.4h-1.5V35h2.5c0.5,0,0.9,0,1.3,0.2
		c0.3,0.2,0.6,0.4,0.7,0.7c0.2,0.3,0.3,0.7,0.3,1c0,0.5-0.1,0.9-0.4,1.2c-0.2,0.3-0.6,0.5-1.1,0.6l1.5,2.5H19.5z M17.9,37.8h1
		c0.3,0,0.5-0.1,0.6-0.2c0.2-0.1,0.2-0.3,0.2-0.6c0-0.2,0-0.4-0.2-0.6c-0.1-0.1-0.3-0.2-0.6-0.2h-1V37.8z M24.8,36.2v1.3h2.1v1.1
		h-2.1v1.4h2.3v1.2h-3.8V35h3.8v1.2H24.8z M33.7,39.4c0,0.4-0.1,0.7-0.3,0.9c-0.1,0.3-0.4,0.5-0.7,0.7c-0.3,0.2-0.7,0.3-1.2,0.3
		c-0.7,0-1.3-0.2-1.7-0.6c-0.5-0.3-0.7-0.8-0.8-1.4h1.6c0.1,0.3,0.1,0.4,0.3,0.6c0.1,0.1,0.3,0.2,0.5,0.2s0.4-0.1,0.5-0.2
		c0.1-0.1,0.2-0.2,0.2-0.4s-0.1-0.3-0.2-0.4c-0.1-0.1-0.2-0.2-0.4-0.3c-0.1,0-0.3-0.1-0.6-0.2c-0.4-0.1-0.7-0.3-1-0.4
		c-0.2-0.1-0.4-0.3-0.6-0.6c-0.2-0.2-0.3-0.5-0.3-0.9c0-0.4,0.1-0.7,0.3-1c0.2-0.3,0.4-0.5,0.8-0.6c0.3-0.2,0.7-0.2,1.1-0.2
		c0.7,0,1.3,0.1,1.7,0.5c0.4,0.3,0.6,0.7,0.7,1.3H32c0-0.2-0.1-0.4-0.2-0.5c-0.1-0.1-0.3-0.2-0.5-0.2s-0.3,0.1-0.4,0.2
		c-0.1,0.1-0.2,0.2-0.2,0.4c0,0.1,0.1,0.3,0.2,0.4c0.1,0.1,0.2,0.2,0.3,0.2c0.2,0.1,0.4,0.2,0.7,0.3c0.4,0.1,0.7,0.2,0.9,0.4
		c0.3,0.1,0.5,0.3,0.7,0.6C33.6,38.7,33.7,39,33.7,39.4z M42.4,35v1.2h-2.5v1.3h2v1.2h-2v2.5h-1.5V35H42.4z M47.4,34.9
		c0.6,0,1.1,0.1,1.6,0.4c0.5,0.2,0.9,0.6,1.1,1.1c0.3,0.5,0.5,1,0.5,1.7c0,0.6-0.2,1.1-0.5,1.6c-0.2,0.5-0.6,0.9-1.1,1.1
		c-0.5,0.3-1,0.5-1.6,0.5s-1.1-0.2-1.6-0.5c-0.5-0.2-0.8-0.6-1.1-1.1c-0.3-0.5-0.4-1-0.4-1.6c0-0.7,0.1-1.2,0.4-1.7
		c0.3-0.5,0.6-0.9,1.1-1.1C46.3,35,46.8,34.9,47.4,34.9z M47.4,36.3c-0.5,0-0.9,0.1-1.2,0.4c-0.3,0.4-0.4,0.8-0.4,1.4
		c0,0.5,0.1,0.9,0.4,1.3c0.3,0.3,0.7,0.4,1.2,0.4s0.9-0.1,1.2-0.4c0.3-0.4,0.4-0.8,0.4-1.3c0-0.6-0.1-1-0.4-1.4
		C48.3,36.4,47.9,36.3,47.4,36.3z M55.8,41.1l-1.3-2.4h-0.4v2.4h-1.5V35h2.5c0.5,0,0.9,0,1.2,0.2c0.4,0.2,0.6,0.4,0.8,0.7
		c0.2,0.3,0.3,0.7,0.3,1c0,0.5-0.2,0.9-0.4,1.2c-0.3,0.3-0.6,0.5-1.1,0.6l1.5,2.5H55.8z M54.1,37.8h1c0.3,0,0.5-0.1,0.6-0.2
		c0.2-0.1,0.2-0.3,0.2-0.6c0-0.2,0-0.4-0.2-0.6c-0.1-0.1-0.3-0.2-0.6-0.2h-1V37.8z M67.3,35l-2.2,4v2.1h-1.5v-2.1l-2.1-4h1.7
		l1.2,2.5l1.2-2.5H67.3z M72.2,34.9c0.5,0,1.1,0.1,1.6,0.4c0.4,0.2,0.8,0.6,1.1,1.1c0.3,0.5,0.4,1,0.4,1.7c0,0.6-0.1,1.1-0.4,1.6
		c-0.3,0.5-0.7,0.9-1.2,1.1c-0.4,0.3-1,0.5-1.5,0.5c-0.6,0-1.2-0.2-1.6-0.5c-0.5-0.2-0.9-0.6-1.2-1.1c-0.3-0.5-0.4-1-0.4-1.6
		c0-0.7,0.1-1.2,0.4-1.7c0.3-0.5,0.7-0.9,1.2-1.1C71,35,71.6,34.9,72.2,34.9z M72.2,36.3c-0.5,0-0.9,0.1-1.2,0.4
		c-0.3,0.4-0.5,0.8-0.5,1.4c0,0.5,0.2,0.9,0.5,1.3c0.3,0.3,0.7,0.4,1.2,0.4c0.4,0,0.8-0.1,1.1-0.4c0.3-0.4,0.5-0.8,0.5-1.3
		c0-0.6-0.2-1-0.5-1.4C73,36.4,72.6,36.3,72.2,36.3z M78.9,35v3.5c0,0.4,0.1,0.7,0.3,0.9c0.2,0.2,0.5,0.3,0.8,0.3
		c0.4,0,0.6-0.1,0.8-0.3c0.2-0.2,0.3-0.5,0.3-0.9V35h1.5v3.5c0,0.5-0.1,1-0.3,1.4c-0.3,0.4-0.6,0.7-1,1c-0.4,0.2-0.8,0.3-1.3,0.3
		s-1-0.1-1.4-0.3c-0.3-0.2-0.6-0.5-0.9-1c-0.2-0.4-0.3-0.9-0.3-1.4V35H78.9z"/>
</g>
<g id="Preset1">
	<g id="Logo">
		<circle class="st2" cx="2.6" cy="28" r="2.1"/>
		<path class="st2" d="M127.8,31.1l-3.3-11.5l-4.8,18.7c-0.1,0.3-0.3,0.5-0.7,0.5l0,0c-0.3,0-0.6-0.3-0.6-0.6l-3.5-24l-2.1,13.5
			c-0.1,0.4-0.4,0.6-0.7,0.6H4v-0.9h107.7l2.5-16.6c0.1-0.3,0.4-0.5,0.7-0.5c0.4,0,0.6,0.2,0.7,0.6l3.6,25.3l4.5-18.3
			c0.1-0.3,0.4-0.5,0.7-0.5s0.6,0.2,0.7,0.5l3.4,11.8l2.6-7.2c0.1-0.3,0.4-0.5,0.6-0.5h4c0.4,0,0.7,0.1,0.7,0.5s-0.3,0.4-0.7,0.4
			h-3.6l-3,8.2c-0.1,0.2-0.4,0.4-0.7,0.4C128.1,31.6,127.8,31.4,127.8,31.1z"/>
		<path class="st2" d="M119.7,2.1c-12.6,0-22.8,10.2-22.8,22.8c0,0.4,0.1,0.6,0.1,0.6h13.8l2.4-16.5c0.1-0.8,0.8-1.7,2-1.6
			c1.2,0,1.8,1.1,1.9,1.8l2.5,18.8l3-12.4c0.2-0.8,0.9-1.6,1.9-1.6s1.7,0.6,2,1.8l2.4,8.8l1.3-3.2c0.4-1,1.2-1.4,1.9-1.4h3.8
			c0.8,0,2.5,0.7,2.5,2.4c0,2-1.7,2.5-2.4,2.5h-2.7l-2.9,7.6c-0.3,0.9-1.3,1.2-1.8,1.2c-0.4,0-1.3-0.1-1.8-1.1l-2.1-7.2l-3.7,15.5
			c-0.7,2.4-3.4,1.6-3.6,0.1l-2.5-15.6l-0.6,3.4c-0.3,0.9-1,1.5-1.9,1.5H97.4c2.2,10.2,11.4,17.5,22.3,17.5
			c12.7,0,22.8-10.2,22.8-22.8S132.3,2.1,119.7,2.1z"/>
	</g>
</g>
</svg>
